<mxfile host="65bd71144e">
    <diagram id="nyNRT-NzSX69-3K8y6W_" name="Page-1">
        <mxGraphModel dx="1064" dy="1796" grid="1" gridSize="10" guides="1" tooltips="1" connect="1" arrows="1" fold="1" page="1" pageScale="1" pageWidth="850" pageHeight="1100" math="0" shadow="0">
            <root>
                <mxCell id="0"/>
                <mxCell id="1" parent="0"/>
                <mxCell id="116" value="" style="rounded=0;whiteSpace=wrap;html=1;fillColor=#FFFFFF;" vertex="1" parent="1">
                    <mxGeometry x="80" y="-10" width="700" height="1100" as="geometry"/>
                </mxCell>
                <mxCell id="23" style="edgeStyle=none;html=1;strokeColor=#18141D;" parent="1" source="3" target="17" edge="1">
                    <mxGeometry relative="1" as="geometry"/>
                </mxCell>
                <mxCell id="24" value="reads data" style="edgeLabel;html=1;align=center;verticalAlign=middle;resizable=0;points=[];" parent="23" vertex="1" connectable="0">
                    <mxGeometry x="0.2112" y="2" relative="1" as="geometry">
                        <mxPoint x="-11" y="2" as="offset"/>
                    </mxGeometry>
                </mxCell>
                <mxCell id="3" value="raw data" style="html=1;dashed=0;whitespace=wrap;shape=mxgraph.dfd.start" parent="1" vertex="1">
                    <mxGeometry x="185" y="347" width="80" height="30" as="geometry"/>
                </mxCell>
                <mxCell id="113" value="" style="edgeStyle=none;html=1;strokeColor=#18141D;" parent="1" source="6" target="112" edge="1">
                    <mxGeometry relative="1" as="geometry"/>
                </mxCell>
                <mxCell id="114" value="&lt;font style=&quot;background-color: rgb(0, 0, 0);&quot; color=&quot;#ffffff&quot;&gt;move parquet files&lt;br&gt;&amp;nbsp;to aggregate folder&lt;/font&gt;" style="edgeLabel;html=1;align=center;verticalAlign=middle;resizable=0;points=[];" parent="113" vertex="1" connectable="0">
                    <mxGeometry x="-0.2892" y="-1" relative="1" as="geometry">
                        <mxPoint x="1" y="25" as="offset"/>
                    </mxGeometry>
                </mxCell>
                <mxCell id="6" value="staging data" style="html=1;dashed=0;whitespace=wrap;shape=mxgraph.dfd.start" parent="1" vertex="1">
                    <mxGeometry x="570" y="627.63" width="80" height="30" as="geometry"/>
                </mxCell>
                <mxCell id="9" value="" style="edgeStyle=none;html=1;strokeColor=#18141D;" parent="1" source="8" target="3" edge="1">
                    <mxGeometry relative="1" as="geometry"/>
                </mxCell>
                <mxCell id="10" value="&lt;font color=&quot;#ffffff&quot; style=&quot;background-color: rgb(0, 0, 0);&quot;&gt;saves in json format &lt;br&gt;usign&amp;nbsp;&lt;span style=&quot;font-size: 12px;&quot;&gt;events/raw_json/{id}/{date}.json&lt;/span&gt;&amp;nbsp;path&lt;/font&gt;" style="edgeLabel;html=1;align=center;verticalAlign=middle;resizable=0;points=[];" parent="9" vertex="1" connectable="0">
                    <mxGeometry x="-0.4491" y="3" relative="1" as="geometry">
                        <mxPoint x="-3" y="11" as="offset"/>
                    </mxGeometry>
                </mxCell>
                <mxCell id="8" value="&lt;br&gt;&lt;br&gt;&lt;br&gt;&lt;br&gt;&lt;br&gt;&lt;br&gt;&lt;br&gt;&lt;br&gt;generate events payload&amp;nbsp;&lt;br&gt;" style="sketch=0;html=1;aspect=fixed;shadow=0;align=center;verticalAlign=top;shape=mxgraph.gcp2.data_access" parent="1" vertex="1">
                    <mxGeometry x="150" y="87" width="150" height="161.29" as="geometry"/>
                </mxCell>
                <mxCell id="11" value="&lt;span style=&quot;color: rgb(0, 0, 0); background-color: rgb(255, 255, 255);&quot;&gt;events/raw_json/{id}/{date}.json&lt;/span&gt;" style="text;html=1;align=center;verticalAlign=middle;resizable=0;points=[];autosize=1;strokeColor=none;fillColor=none;" parent="1" vertex="1">
                    <mxGeometry x="130" y="377" width="190" height="30" as="geometry"/>
                </mxCell>
                <mxCell id="109" style="edgeStyle=none;html=1;entryX=1;entryY=0;entryDx=0;entryDy=0;strokeColor=#000000;" parent="1" source="13" target="85" edge="1">
                    <mxGeometry relative="1" as="geometry"/>
                </mxCell>
                <mxCell id="13" value="" style="sketch=0;html=1;aspect=fixed;shadow=0;align=center;verticalAlign=top;shape=mxgraph.gcp2.gear_load;labelBackgroundColor=#0D0D0D;" parent="1" vertex="1">
                    <mxGeometry x="605" y="297" width="119.57" height="110" as="geometry"/>
                </mxCell>
                <mxCell id="15" value="&lt;font style=&quot;background-color: rgb(255, 255, 255);&quot; color=&quot;#000000&quot;&gt;pipeline process&lt;/font&gt;" style="text;html=1;align=center;verticalAlign=middle;resizable=0;points=[];autosize=1;strokeColor=none;fillColor=none;" parent="1" vertex="1">
                    <mxGeometry x="605" y="267" width="110" height="30" as="geometry"/>
                </mxCell>
                <mxCell id="16" value="&lt;div style=&quot;color: rgb(204, 204, 204); background-color: rgb(31, 31, 31); font-family: Consolas, &amp;quot;Courier New&amp;quot;, monospace; font-size: 14px; line-height: 19px;&quot;&gt;&lt;span style=&quot;color: #ce9178;&quot;&gt;environment: local&lt;/span&gt;&lt;/div&gt;" style="text;html=1;align=center;verticalAlign=middle;resizable=0;points=[];autosize=1;strokeColor=none;fillColor=none;" parent="1" vertex="1">
                    <mxGeometry x="125" y="37" width="160" height="30" as="geometry"/>
                </mxCell>
                <mxCell id="25" style="edgeStyle=none;html=1;exitX=1;exitY=0.5;exitDx=0;exitDy=0;entryX=0;entryY=0.591;entryDx=0;entryDy=0;entryPerimeter=0;strokeColor=#000000;" parent="1" source="17" target="13" edge="1">
                    <mxGeometry relative="1" as="geometry"/>
                </mxCell>
                <mxCell id="17" value="" style="shape=step;perimeter=stepPerimeter;whiteSpace=wrap;html=1;fixedSize=1;verticalAlign=top;sketch=0;shadow=0;labelBackgroundColor=#0D0D0D;" parent="1" vertex="1">
                    <mxGeometry x="345" y="334.5" width="220.64" height="55" as="geometry"/>
                </mxCell>
                <mxCell id="19" value="&lt;font color=&quot;#ffffff&quot; style=&quot;background-color: rgb(0, 0, 0);&quot;&gt;for each json file in the structure:&lt;br&gt;&amp;nbsp;events/raw_json/{id}/{date}.json&lt;/font&gt;" style="text;html=1;align=center;verticalAlign=middle;resizable=0;points=[];autosize=1;strokeColor=none;fillColor=none;" parent="1" vertex="1">
                    <mxGeometry x="355.32000000000005" y="342" width="200" height="40" as="geometry"/>
                </mxCell>
                <mxCell id="111" style="edgeStyle=none;html=1;exitX=0;exitY=0.5;exitDx=0;exitDy=0;entryX=0.5;entryY=0;entryDx=0;entryDy=0;strokeColor=#18141D;" parent="1" source="85" target="87" edge="1">
                    <mxGeometry relative="1" as="geometry"/>
                </mxCell>
                <mxCell id="85" value="&lt;font color=&quot;#ffffff&quot; style=&quot;background-color: rgb(0, 0, 0);&quot;&gt;&lt;span style=&quot;font-family: Helvetica; font-size: 11px; font-style: normal; font-variant-ligatures: normal; font-variant-caps: normal; font-weight: 400; letter-spacing: normal; orphans: 2; text-indent: 0px; text-transform: none; widows: 2; word-spacing: 0px; -webkit-text-stroke-width: 0px; text-decoration-thickness: initial; text-decoration-style: initial; text-decoration-color: initial; float: none; display: inline !important;&quot;&gt;saves in parquet format&amp;nbsp;&lt;/span&gt;&lt;span style=&quot;font-family: Helvetica; font-size: 11px; font-style: normal; font-variant-ligatures: normal; font-variant-caps: normal; font-weight: 400; letter-spacing: normal; orphans: 2; text-indent: 0px; text-transform: none; widows: 2; word-spacing: 0px; -webkit-text-stroke-width: 0px; text-decoration-thickness: initial; text-decoration-style: initial; text-decoration-color: initial; float: none; display: inline !important;&quot;&gt;usign the path:&lt;br&gt;&amp;nbsp;&lt;/span&gt;&lt;span style=&quot;border-color: rgb(0, 0, 0); font-family: Helvetica; font-style: normal; font-variant-ligatures: normal; font-variant-caps: normal; font-weight: 400; letter-spacing: normal; orphans: 2; text-indent: 0px; text-transform: none; widows: 2; word-spacing: 0px; -webkit-text-stroke-width: 0px; text-decoration-thickness: initial; text-decoration-style: initial; text-decoration-color: initial; font-size: 12px;&quot;&gt;events/staging_parquet/{domain}/{event_type}/{uuid}/{date}.parquet&lt;/span&gt;&lt;/font&gt;" style="text;html=1;align=center;" parent="1" vertex="1">
                    <mxGeometry x="275" y="457" width="330" height="55" as="geometry"/>
                </mxCell>
                <mxCell id="97" value="" style="edgeStyle=none;html=1;strokeColor=#18141D;" parent="1" source="87" target="96" edge="1">
                    <mxGeometry relative="1" as="geometry"/>
                </mxCell>
                <mxCell id="98" value="&lt;font color=&quot;#ffffff&quot; style=&quot;background-color: rgb(0, 0, 0);&quot;&gt;No,&amp;nbsp;compare the file_name&lt;br&gt;&amp;nbsp;with the file_name (date) in the folder&lt;/font&gt;" style="edgeLabel;html=1;align=center;verticalAlign=middle;resizable=0;points=[];" parent="97" vertex="1" connectable="0">
                    <mxGeometry x="-0.2493" y="-1" relative="1" as="geometry">
                        <mxPoint as="offset"/>
                    </mxGeometry>
                </mxCell>
                <mxCell id="87" value="" style="rhombus;whiteSpace=wrap;html=1;labelBackgroundColor=#000000;labelBorderColor=none;" parent="1" vertex="1">
                    <mxGeometry x="185" y="577" width="145" height="131.25" as="geometry"/>
                </mxCell>
                <mxCell id="90" value="" style="edgeStyle=none;html=1;startArrow=none;strokeColor=#18141D;" parent="1" source="91" edge="1">
                    <mxGeometry relative="1" as="geometry">
                        <mxPoint x="560" y="640.25" as="targetPoint"/>
                    </mxGeometry>
                </mxCell>
                <mxCell id="88" value="Is the folder empty?" style="text;html=1;align=center;verticalAlign=middle;resizable=0;points=[];autosize=1;strokeColor=none;fillColor=none;" parent="1" vertex="1">
                    <mxGeometry x="192.5" y="628.25" width="130" height="30" as="geometry"/>
                </mxCell>
                <mxCell id="92" value="" style="edgeStyle=none;html=1;endArrow=none;exitX=1;exitY=0.5;exitDx=0;exitDy=0;strokeColor=#18141D;" parent="1" source="87" target="91" edge="1">
                    <mxGeometry relative="1" as="geometry">
                        <mxPoint x="340" y="642.25" as="sourcePoint"/>
                        <mxPoint x="420" y="640.75" as="targetPoint"/>
                    </mxGeometry>
                </mxCell>
                <mxCell id="91" value="&lt;font color=&quot;#ffffff&quot; style=&quot;background-color: rgb(0, 0, 0);&quot;&gt;Yes, save the DataFrame&lt;br&gt;&amp;nbsp;as a Parquet file&lt;/font&gt;" style="text;html=1;align=center;verticalAlign=middle;resizable=0;points=[];autosize=1;strokeColor=none;fillColor=none;" parent="1" vertex="1">
                    <mxGeometry x="370" y="620.75" width="160" height="40" as="geometry"/>
                </mxCell>
                <mxCell id="93" value="&lt;span style=&quot;font-family: Helvetica; font-size: 12px; font-style: normal; font-variant-ligatures: normal; font-variant-caps: normal; font-weight: 400; letter-spacing: normal; orphans: 2; text-align: center; text-indent: 0px; text-transform: none; widows: 2; word-spacing: 0px; -webkit-text-stroke-width: 0px; text-decoration-thickness: initial; text-decoration-style: initial; text-decoration-color: initial; float: none; display: inline !important; background-color: rgb(255, 255, 255);&quot;&gt;&lt;font style=&quot;&quot; color=&quot;#000000&quot;&gt;events/&lt;/font&gt;&lt;span style=&quot;color: rgb(0, 0, 0);&quot;&gt;staging_&lt;/span&gt;&lt;font style=&quot;&quot; color=&quot;#000000&quot;&gt;parquet/{domain}/{event_type}/{uuid}/{date}.parquet&lt;/font&gt;&lt;/span&gt;" style="text;whiteSpace=wrap;html=1;" parent="1" vertex="1">
                    <mxGeometry x="330" y="597.75" width="360" height="23" as="geometry"/>
                </mxCell>
                <mxCell id="103" style="edgeStyle=none;html=1;strokeColor=#000000;" parent="1" source="96" target="91" edge="1">
                    <mxGeometry relative="1" as="geometry">
                        <Array as="points">
                            <mxPoint x="360" y="854.25"/>
                            <mxPoint x="420" y="854.25"/>
                            <mxPoint x="420" y="818.25"/>
                            <mxPoint x="420" y="788.25"/>
                            <mxPoint x="420" y="708.25"/>
                            <mxPoint x="420" y="678.25"/>
                        </Array>
                    </mxGeometry>
                </mxCell>
                <mxCell id="105" value="" style="edgeStyle=none;html=1;strokeColor=#000000;" parent="1" target="104" edge="1">
                    <mxGeometry relative="1" as="geometry">
                        <mxPoint x="257.5" y="878.25" as="sourcePoint"/>
                    </mxGeometry>
                </mxCell>
                <mxCell id="106" value="No" style="edgeLabel;html=1;align=center;verticalAlign=middle;resizable=0;points=[];" parent="105" vertex="1" connectable="0">
                    <mxGeometry x="-0.2736" y="-2" relative="1" as="geometry">
                        <mxPoint x="2" y="32" as="offset"/>
                    </mxGeometry>
                </mxCell>
                <mxCell id="96" value="" style="rhombus;whiteSpace=wrap;html=1;labelBackgroundColor=#000000;labelBorderColor=none;" parent="1" vertex="1">
                    <mxGeometry x="185" y="788.25" width="145" height="131.25" as="geometry"/>
                </mxCell>
                <mxCell id="101" value="Is the date in file_name &lt;br&gt;greater than or equal&lt;br&gt;&amp;nbsp;to the date in the folder?" style="edgeLabel;html=1;align=center;verticalAlign=middle;resizable=0;points=[];" parent="1" vertex="1" connectable="0">
                    <mxGeometry x="260" y="853.87" as="geometry"/>
                </mxCell>
                <mxCell id="104" value="" style="ellipse;whiteSpace=wrap;html=1;labelBackgroundColor=#000000;labelBorderColor=none;" parent="1" vertex="1">
                    <mxGeometry x="217.5" y="983.875" width="80" height="80" as="geometry"/>
                </mxCell>
                <mxCell id="107" value="&lt;div style=&quot;text-align: center;&quot;&gt;&lt;span style=&quot;font-size: 11px; background-color: rgb(0, 0, 0);&quot;&gt;&lt;font style=&quot;&quot; color=&quot;#ffffff&quot;&gt;End flow&lt;/font&gt;&lt;/span&gt;&lt;/div&gt;" style="text;whiteSpace=wrap;html=1;" parent="1" vertex="1">
                    <mxGeometry x="237.5" y="1003.88" width="40" height="40" as="geometry"/>
                </mxCell>
                <mxCell id="112" value="aggregated data" style="html=1;dashed=0;whitespace=wrap;shape=mxgraph.dfd.start" parent="1" vertex="1">
                    <mxGeometry x="560" y="820" width="100" height="30" as="geometry"/>
                </mxCell>
                <mxCell id="115" value="&lt;div style=&quot;text-align: center;&quot;&gt;&lt;font color=&quot;#000000&quot; style=&quot;background-color: rgb(255, 255, 255);&quot;&gt;events/aggregated_parquet/{year}/{month}/{day}/&lt;/font&gt;&lt;/div&gt;&lt;div style=&quot;text-align: center;&quot;&gt;&lt;font color=&quot;#000000&quot; style=&quot;background-color: rgb(255, 255, 255);&quot;&gt;{domain}_{event_type}/{uuid}.parquet&lt;/font&gt;&lt;/div&gt;" style="text;whiteSpace=wrap;html=1;" parent="1" vertex="1">
                    <mxGeometry x="480" y="850" width="360" height="23" as="geometry"/>
                </mxCell>
            </root>
        </mxGraphModel>
    </diagram>
</mxfile>